<svg width="22" height="22" viewBox="0 0 22 22" fill="none" xmlns="http://www.w3.org/2000/svg">
<path d="M15.8263 18.0821H6.24772C5.81974 18.0821 5.34081 17.7458 5.19815 17.3382L0.979513 5.53824C0.378306 3.84671 1.08141 3.32702 2.52838 4.36639L6.50246 7.20939C7.16481 7.66794 7.91887 7.43357 8.20419 6.6897L9.99762 1.91062C10.5683 0.382123 11.5159 0.382123 12.0866 1.91062L13.88 6.6897C14.1653 7.43357 14.9194 7.66794 15.5715 7.20939L19.301 4.54981C20.8907 3.40854 21.6549 3.98936 21.0028 5.83375L16.886 17.3586C16.7332 17.7458 16.2542 18.0821 15.8263 18.0821Z" stroke="white" stroke-width="1.5" stroke-linecap="round" stroke-linejoin="round"/>
<path d="M5.43253 21.1594H16.6415" stroke="white" stroke-width="1.5" stroke-linecap="round" stroke-linejoin="round"/>
<path d="M8.48952 13.0075H13.5845" stroke="white" stroke-width="1.5" stroke-linecap="round" stroke-linejoin="round"/>
</svg>
