<svg width="22" height="19" viewBox="0 0 22 19" fill="none" xmlns="http://www.w3.org/2000/svg">
<path d="M0.756604 5.2378V15.0535C0.756604 16.9702 2.11849 17.7571 3.77293 16.8088L6.14362 15.457C6.65811 15.1644 7.5156 15.1342 8.05026 15.4066L13.3465 18.0597C13.8812 18.322 14.7386 18.3018 15.2531 18.0093L19.6213 15.5074C20.1761 15.1846 20.6401 14.3977 20.6401 13.7521V3.93644C20.6401 2.01971 19.2783 1.23285 17.6238 2.18112L15.2531 3.53292C14.7386 3.82547 13.8812 3.85574 13.3465 3.58336L8.05026 0.940292C7.5156 0.678003 6.65811 0.698179 6.14362 0.990732L1.7755 3.49257C1.21057 3.81539 0.756604 4.60225 0.756604 5.2378Z" stroke="#185BFF" stroke-width="1.5" stroke-linecap="round" stroke-linejoin="round"/>
<path d="M7.08181 1.42454V14.539" stroke="#185BFF" stroke-width="1.5" stroke-linecap="round" stroke-linejoin="round"/>
<path d="M14.3149 4.06761V17.5654" stroke="#185BFF" stroke-width="1.5" stroke-linecap="round" stroke-linejoin="round"/>
</svg>
