<svg width="22" height="14" viewBox="0 0 22 14" fill="none" xmlns="http://www.w3.org/2000/svg">
<path d="M11 8.95355C12.1303 8.95355 13.0465 8.0373 13.0465 6.90704C13.0465 5.77678 12.1303 4.86053 11 4.86053C9.86974 4.86053 8.95349 5.77678 8.95349 6.90704C8.95349 8.0373 9.86974 8.95355 11 8.95355Z" stroke="#00091F" stroke-width="1.5" stroke-linecap="round" stroke-linejoin="round"/>
<path d="M19.186 13.0466C20.4753 11.3377 21.2326 9.20936 21.2326 6.90704C21.2326 4.60471 20.4753 2.47634 19.186 0.767504" stroke="#00091F" stroke-width="1.5" stroke-linecap="round" stroke-linejoin="round"/>
<path d="M2.81395 0.767504C1.52465 2.47634 0.767442 4.60471 0.767442 6.90704C0.767442 9.20936 1.52465 11.3377 2.81395 13.0466" stroke="#00091F" stroke-width="1.5" stroke-linecap="round" stroke-linejoin="round"/>
<path d="M15.9116 10.5908C16.6791 9.56754 17.1395 8.28847 17.1395 6.90707C17.1395 5.52568 16.6791 4.2466 15.9116 3.22334" stroke="#00091F" stroke-width="1.5" stroke-linecap="round" stroke-linejoin="round"/>
<path d="M6.08838 3.22334C5.32094 4.2466 4.86047 5.52568 4.86047 6.90707C4.86047 8.28847 5.32094 9.56754 6.08838 10.5908" stroke="#00091F" stroke-width="1.5" stroke-linecap="round" stroke-linejoin="round"/>
</svg>
