<svg width="14" height="14" viewBox="0 0 14 14" fill="none" xmlns="http://www.w3.org/2000/svg">
<path d="M6.99999 0C3.143 0 0 3.143 0 6.99999C0 10.857 3.143 14 6.99999 14C10.857 14 14 10.857 14 6.99999C14 3.143 10.857 0 6.99999 0ZM6.47499 4.2C6.47499 3.913 6.71299 3.675 6.99999 3.675C7.28699 3.675 7.52499 3.913 7.52499 4.2V7.69999C7.52499 7.98699 7.28699 8.22499 6.99999 8.22499C6.71299 8.22499 6.47499 7.98699 6.47499 7.69999V4.2ZM7.64399 10.066C7.60899 10.157 7.55999 10.227 7.49699 10.297C7.42699 10.36 7.34999 10.409 7.26599 10.444C7.18199 10.479 7.09099 10.5 6.99999 10.5C6.90899 10.5 6.81799 10.479 6.73399 10.444C6.64999 10.409 6.57299 10.36 6.50299 10.297C6.43999 10.227 6.39099 10.157 6.35599 10.066C6.32099 9.98199 6.29999 9.89099 6.29999 9.79999C6.29999 9.70899 6.32099 9.61799 6.35599 9.53399C6.39099 9.44999 6.43999 9.37299 6.50299 9.30299C6.57299 9.23999 6.64999 9.19099 6.73399 9.15599C6.90199 9.08599 7.09799 9.08599 7.26599 9.15599C7.34999 9.19099 7.42699 9.23999 7.49699 9.30299C7.55999 9.37299 7.60899 9.44999 7.64399 9.53399C7.67899 9.61799 7.69999 9.70899 7.69999 9.79999C7.69999 9.89099 7.67899 9.98199 7.64399 10.066Z" fill="#00091F" fill-opacity="0.4"/>
</svg>
